<svg xmlns="http://www.w3.org/2000/svg" xmlns:xlink="http://www.w3.org/1999/xlink" width="400" height="153.333" viewBox="0 0 300 115" preserveAspectRatio="xMidYMid meet"><rect width="362.912" height="131.543" x="5.199" y="6.488" transform="scale(.8)" rx=".319" ry=".267" fill="#ffde00"/><path d="M4 4C1.25 6.75.85 106.9 3.55 110.8L5.1 113h143.5l145.45-1.05c1.9-1 1.95-2.65 1.95-53.95V5.1l-2.2-1.55C289.85.8 6.75 1.25 4 4zm286.8 3.55L293 9.1v48.15c0 43.35-.15 48.25-1.65 49.9-1.95 2.2-279.4 2.95-283.4.8-1.9-1-1.95-2.6-1.95-50.5V7.95l2.25-.9c4.45-1.8 279.95-1.3 282.55.5z"/><g transform="matrix(1.021245 0 0 1 -.184231 0)"><use xlink:href="#B"/><use xlink:href="#C"/><use xlink:href="#D"/><use xlink:href="#E"/><use xlink:href="#F"/><use xlink:href="#F" x="17.41"/><use xlink:href="#F" x="52.231"/><use xlink:href="#F" x="87.051"/><use xlink:href="#F" x="121.872"/><use xlink:href="#F" x="139.282"/><use xlink:href="#F" x="156.692"/><use xlink:href="#F" x="174.102"/><use xlink:href="#F" x="34.82"/><use xlink:href="#F" x="69.641"/><use xlink:href="#F" x="104.461"/></g><g transform="matrix(1.021245 0 0 1 -.184231 -62.80772)"><use xlink:href="#B"/><use xlink:href="#C"/><use xlink:href="#D"/><use xlink:href="#E"/><use xlink:href="#F"/><use xlink:href="#F" x="17.41"/><use xlink:href="#F" x="52.231"/><use xlink:href="#F" x="87.051"/><use xlink:href="#F" x="121.872"/><use xlink:href="#F" x="139.282"/><use xlink:href="#F" x="156.692"/><use xlink:href="#F" x="174.102"/><use xlink:href="#F" x="34.82"/><use xlink:href="#F" x="69.641"/><use xlink:href="#F" x="104.461"/></g><use xlink:href="#G"/><use xlink:href="#H"/><path d="M42.368 69.105V50.183c-.033-.208-.234-.365-.6-.47-.3-.083-.484-.206-.584-.367s-.15-.508-.15-1.04c0-.385.072-.64.217-.766s.517-.187 1.118-.187h7.994c2.28 0 4.17.984 5.666 2.953s2.245 5.24 2.245 9.813c0 4.167-.723 7.284-2.17 9.352s-3.36 3.102-5.74 3.102H41.55c-.245 0-.414-.055-.5-.164s-.142-.352-.142-.727c0-.448.017-.73.05-.844s.195-.245.484-.4c.623-.302.935-.75.935-1.344zm6.2-19.9v21.64h.885c.623 0 1.08-.242 1.37-.727s.434-1.346.434-2.586v-15.97c0-.698-.178-1.266-.534-1.703s-.862-.656-1.52-.656zm18.658.062V58.2h1.135c.312 0 .54-.062.684-.187s.256-.396.334-.812c.134-.74.242-1.182.325-1.328a.42.42 0 0 1 .392-.219c.88 0 1.377.034 1.494.102s.175.33.175.8v5.203c0 .323-.056.534-.167.633s-.456.148-1.035.148c-.378 0-.63-.065-.76-.195s-.253-.497-.376-1.102c-.122-.552-.242-.9-.36-1.016s-.298-.187-.542-.187h-1.302v10.766h.885c.545 0 .92-.143 1.127-.43s.537-1.112.993-2.477c.2-.573.384-.948.584-1.125s.55-.266 1.05-.266c.7 0 1.035.208 1.035.625a3.26 3.26 0 0 1-.067.547l-.618 3.547c-.1.646-.203 1.034-.275 1.164s-.298.195-.676.195H60.143c-.278 0-.456-.06-.534-.18s-.117-.466-.117-1.04c0-.365.2-.63.6-.797.612-.24.918-.568.918-.984V50.1c-.01-.198-.26-.396-.75-.594-.334-.135-.53-.266-.592-.4s-.092-.427-.092-.906c0-.406.033-.648.1-.727s.26-.117.584-.117h10.648c.267 0 .462.042.584.125s.217.28.284.594l.85 4.03c.044.208.067.35.067.422 0 .28-.267.422-.8.422-.6 0-1-.065-1.202-.195s-.395-.456-.584-.977c-.345-.937-.643-1.6-.893-1.953s-.53-.547-.843-.547z"/><use xlink:href="#I"/><path d="M111.764 46.933h.868c.2 0 .35.07.45.2s.172.518.217 1.133l.384 5.03.017.297c0 .365-.067.62-.2.766s-.4.22-.8.22c-.5 0-.83-.12-1.018-.36s-.373-.807-.55-1.703c-.456-2.27-1.107-3.406-1.953-3.406-.7 0-1.05.818-1.05 2.453V69.15c0 1.167.367 1.75 1.102 1.75.935 0 1.458-.974 1.57-2.922.033-.562.15-.953.35-1.172s.612-.328 1.235-.328c.467 0 .793.08.976.242s.275.477.275.945c0 1.5-.478 2.727-1.435 3.7s-2.147 1.477-3.572 1.477c-1.38 0-2.592-.4-3.638-1.234s-1.95-2.242-2.712-4.258-1.143-4.596-1.143-7.742c0-2.97.32-5.34.96-7.117s1.458-3.148 2.453-4.117 2.156-1.453 3.48-1.453c.8 0 1.496.203 2.086.6.223.146.4.22.5.22.134 0 .323-.146.567-.438.2-.26.406-.4.584-.4zm11.55 0c1.636 0 3.05.513 4.247 1.54s2.172 2.487 2.93 4.383 1.135 4.328 1.135 7.297c0 3.563-.737 6.57-2.2 9.023s-3.552 3.68-6.234 3.68c-2.548 0-4.556-1.198-6.025-3.594s-2.203-5.5-2.203-9.28c0-3.885.754-7.03 2.26-9.437s3.54-3.6 6.1-3.6zm1.318 3.703c0-1.302-.45-1.953-1.352-1.953-.378 0-.7.16-.968.484s-.4.72-.4 1.188v18.86c0 .635.133 1.117.4 1.445s.584.492.95.492c.412 0 .743-.182.993-.547s.376-.77.376-1.22z"/><use xlink:href="#H" x="107.615"/><path d="M156.525 48.027c.067-.052.256-.286.567-.703.2-.27.467-.406.8-.406.078 0 .39.036.935.11.11.104.195.323.25.656l.9 5.297.067.5c0 .198-.058.328-.175.39s-.426.094-.926.094c-.567 0-.935-.068-1.102-.203s-.484-.698-.95-1.687c-1-2.094-1.875-3.14-2.654-3.14-.556 0-.834.365-.834 1.094 0 .906.84 2.688 2.52 5.344l3.763 6.648c.584 1.37.876 2.904.876 4.602 0 2-.506 3.552-1.52 4.625s-2.153 1.61-3.42 1.61c-.8 0-1.574-.214-2.32-.64-.29-.167-.517-.25-.684-.25-.145 0-.26.1-.35.297-.178.396-.612.594-1.302.594-.267 0-.448-.04-.542-.117s-.164-.284-.21-.617l-.834-5.203-.167-1.062c0-.302.295-.453.885-.453.8 0 1.274.1 1.42.297s.35.65.618 1.36c.98 2.53 1.964 3.797 2.954 3.797.367 0 .665-.125.893-.375s.342-.562.342-.937c0-.656-.253-1.435-.76-2.336l-1.86-3.008c-1.758-2.646-3-4.758-3.73-6.336s-1.093-3.2-1.093-4.836c0-1.854.434-3.333 1.302-4.437s1.93-1.656 3.188-1.656c.868 0 1.92.365 3.154 1.094z"/><use xlink:href="#J"/><use xlink:href="#I" x="103.742"/><use xlink:href="#G" x="185.588"/><path d="M222.115 46.933h.868c.2 0 .35.07.45.21s.172.518.217 1.133l.384 5.03a2.81 2.81 0 0 1 .017.297c0 .365-.067.62-.2.766s-.4.22-.8.22c-.5 0-.83-.12-1.018-.36s-.373-.807-.55-1.703c-.456-2.27-1.107-3.406-1.953-3.406-.7 0-1.05.818-1.05 2.453v17.578c0 1.167.367 1.75 1.102 1.75.935 0 1.458-.974 1.57-2.922.033-.562.15-.953.35-1.172s.612-.328 1.235-.328c.467 0 .793.08.976.242s.275.477.275.945c0 1.5-.478 2.727-1.435 3.71s-2.147 1.477-3.572 1.477c-1.38 0-2.592-.41-3.638-1.234s-1.95-2.242-2.712-4.258-1.143-4.596-1.143-7.742c0-2.97.32-5.34.96-7.117s1.458-3.148 2.453-4.117 2.156-1.453 3.48-1.453c.8 0 1.496.203 2.086.61.223.146.39.22.5.22.133 0 .323-.146.567-.438.21-.26.406-.39.584-.39z"/><use xlink:href="#J" x="63.354"/><path d="M240.908 48.667v-.828c0-.323.184-.484.55-.484h7.994c.3 0 .495.036.584.1s.134.292.134.656c0 .552-.03.896-.092 1.03s-.197.22-.4.25c-.7.115-1.035.526-1.035 1.234v18.78c0 .396.25.708.75.938.323.146.517.276.584.4s.1.313.1.594v.6c0 .333-.033.52-.1.563s-.24.063-.517.063h-8.145c-.312 0-.467-.115-.467-.344 0-.75.028-1.208.083-1.375s.25-.297.584-.4c.6-.156.9-.453.9-.9V51.027c0-.437-.056-.768-.167-.992s-.356-.4-.734-.555c-.278-.115-.448-.216-.5-.305s-.092-.258-.092-.508zm18.792-1.734c1.636 0 3.05.513 4.248 1.54s2.172 2.487 2.93 4.383 1.135 4.328 1.135 7.297c0 3.563-.737 6.57-2.2 9.023s-3.552 3.68-6.234 3.68c-2.548 0-4.556-1.198-6.025-3.594s-2.203-5.5-2.203-9.28c0-3.885.754-7.03 2.26-9.437s3.54-3.6 6.1-3.6zm1.318 3.703c0-1.302-.45-1.953-1.352-1.953-.378 0-.7.16-.968.484s-.4.72-.4 1.188v18.86c0 .635.134 1.117.4 1.445s.584.492.95.492c.412 0 .743-.182.993-.547s.376-.77.376-1.22zm12.534 7.64v11.03c0 .458.278.802.834 1.03.467.198.7.48.7.844l-.058 1.266c-.04.083-.203.125-.492.125h-4.44c-.223 0-.362-.08-.417-.242s-.083-.56-.083-1.195c0-.292.15-.495.45-.6.58-.24.868-.5.868-.812v-18.47c0-.448-.045-.784-.134-1.008s-.3-.4-.6-.555c-.278-.125-.465-.26-.56-.406s-.142-.422-.142-.828c0-.73.206-1.094.618-1.094h4.64l5.608 12.172v-8.97c0-.5-.273-.854-.818-1.062-.323-.135-.53-.3-.626-.46s-.142-.508-.142-1.008c0-.312.033-.503.1-.57s.195-.102.384-.102h4.606c.256.03.384.375.384 1.03 0 .385-.025.63-.075.734s-.164.193-.342.266c-.4.146-.634.286-.734.422s-.15.323-.15.562V72.57h-2.837z"/><defs ><path id="B" d="M24.772 81.75c-1.95 2.05-6.35 7-9.8 11l-6.3 7.25 5.85-.05h5.85l6.5-7.65L39.022 78h-5.35c-4.95 0-5.7.3-8.9 3.75z"/><path id="C" d="M42.182 81.75c-1.95 2.05-6.35 7-9.8 11l-6.3 7.25 5.85-.05h5.85l6.5-7.65L56.432 78h-5.35c-4.95 0-5.7.3-8.9 3.75z"/><path id="D" d="M59.592 81.75c-1.95 2.05-6.35 7-9.8 11l-6.3 7.25 5.85-.05h5.85l6.5-7.65L73.842 78h-5.35c-4.95 0-5.7.3-8.9 3.75z"/><path id="E" d="M77.002 81.75c-1.95 2.05-6.35 7-9.8 11l-6.3 7.25 5.85-.05h5.85l6.5-7.65L91.252 78h-5.35c-4.95 0-5.7.3-8.9 3.75z"/><path id="F" d="M94.413 81.75c-1.95 2.05-6.35 7-9.8 11l-6.3 7.25 5.85-.05h5.85l6.5-7.65 12.15-14.3h-5.35c-4.95 0-5.7.3-8.9 3.75z"/><path id="G" d="M11.142 47.355h7.227c.245 0 .4.05.467.148s.1.404.1.914-.16.85-.484 1.016c-.245.125-.41.255-.492.39s-.125.396-.125.78v17.5c0 .48.145.867.434 1.164s.656.445 1.102.445c.412 0 .762-.167 1.05-.5s.434-.703.434-1.11v-17.5c0-.302-.03-.513-.092-.633s-.214-.268-.46-.445c-.378-.27-.567-.687-.567-1.25 0-.437.053-.7.16-.79s.26-.133.46-.133h3.605c.4 0 .6.188.6.563v.75c0 .333-.022.544-.067.633s-.172.17-.384.242c-.523.167-.784.505-.784 1.016v17.047c0 1.615-.495 2.893-1.485 3.836s-2.37 1.414-4.14 1.414c-1.98 0-3.49-.5-4.53-1.5s-1.56-2.443-1.56-4.328v-16.47c0-.437-.245-.76-.734-.97-.245-.104-.392-.2-.442-.29s-.075-.28-.075-.57c0-.604.04-.984.117-1.14s.3-.234.668-.234z"/><path id="H" d="M29.55 58.277v11.03c0 .458.278.802.834 1.03.467.198.7.48.7.844l-.058 1.266c-.04.083-.203.125-.492.125h-4.44c-.223 0-.362-.08-.417-.242s-.083-.56-.083-1.195c0-.292.15-.495.45-.61.58-.24.868-.5.868-.812v-18.47c0-.448-.044-.784-.134-1.008s-.29-.41-.6-.555c-.278-.125-.465-.26-.56-.406s-.142-.422-.142-.828c0-.73.206-1.094.618-1.094h4.64l5.608 12.172v-8.97c0-.5-.273-.854-.818-1.062-.323-.135-.53-.29-.626-.46s-.142-.508-.142-1.008c0-.312.033-.503.1-.57s.195-.102.384-.102h4.606c.256.03.384.375.384 1.03 0 .385-.025.63-.075.734s-.164.193-.342.266c-.39.146-.634.286-.734.422s-.15.323-.15.562v22.203h-2.837z"/><path id="I" d="M81.522 61.48v7.75c0 .365.025.61.075.734s.192.255.426.39c.3.177.45.474.45.89 0 .604-.058.977-.175 1.117s-.33.21-.643.21h-7.06c-.4 0-.6-.27-.6-.812 0-.52.017-.857.05-1.008s.145-.258.334-.32a1.31 1.31 0 0 0 .918-1.344V50.792c0-.677-.267-1.09-.8-1.234-.267-.083-.434-.167-.5-.25s-.1-.328-.1-.734c0-.812.234-1.22.7-1.22h9.23c1.836 0 3.474.646 4.915 1.938s2.16 3.026 2.16 5.203c0 3.094-1.686 5.115-5.057 6.063 3.082.635 4.623 2.464 4.623 5.484v3.72a.77.77 0 0 0 .384.703c.3.188.45.474.45.86 0 .604-.04.964-.117 1.078s-.284.172-.618.172h-4.473c-.534 0-.974-.284-1.318-.852s-.517-1.268-.517-2.102v-6.297c0-1.23-.662-1.844-1.986-1.844zm0-12.344v10.53h1.085c1.102 0 1.652-1.036 1.652-3.11v-5.03c0-.875-.175-1.492-.526-1.852s-.898-.54-1.644-.54z"/><path id="J" d="M165.988 49.105h-.75c-.245 0-.445.154-.6.46s-.317 1.138-.484 2.492c-.078.594-.2.966-.367 1.117s-.5.227-1 .227c-.478 0-.787-.055-.926-.164s-.21-.326-.21-.648l.017-.563.2-3.64c.022-.427.1-.706.234-.836s.467-.195 1-.195h12.233c.356 0 .573.042.65.125s.14.385.184.906l.284 3.22.033.766c0 .313-.042.552-.125.72s-.348.25-.793.25c-.567 0-.932-.052-1.093-.156s-.292-.432-.392-.984c-.178-.906-.373-1.648-.584-2.227s-.473-.867-.784-.867h-.5v20.063c0 .573.267.97.8 1.188.223.094.37.206.442.336s.108.404.108.82c0 .53-.05.84-.15.93s-.328.133-.684.133h-7.343c-.29 0-.476-.052-.56-.156s-.125-.4-.125-.89c0-.583.172-.937.517-1.062.334-.125.545-.247.634-.367s.134-.326.134-.617z"/></defs></svg>